<?xml version="1.0" encoding="UTF-8"?>
<svg id="Layer_1" data-name="Layer 1" xmlns="http://www.w3.org/2000/svg" viewBox="0 0 522.6 264.33">
  <defs>
    <style>
      .cls-1 {
        fill: #c5a059;
      }

      .cls-2 {
        fill: #556b2f;
      }
    </style>
  </defs>
  <path class="cls-1" d="m134.68,117.36l-18.72,49.97c-.58,1.57-2.09,2.61-3.77,2.61h-.44c-1.78,0-3.35-1.16-3.86-2.86l-15.13-50.06c-.85-2.88-1.6-4.93-2.23-6.15-.63-1.21-1.33-2.14-2.09-2.75-.58-.47-1.32-.85-2.23-1.15-.54-.17-.9-.66-.9-1.22v-.07c0-.71.57-1.29,1.28-1.29h18.89c.71,0,1.28.57,1.28,1.28,0,.3-.11.58-.29.8-.18.22-.43.38-.73.45-.97.21-1.73.46-2.31.75-.76.38-1.33.92-1.7,1.61-.38.7-.57,1.63-.57,2.8,0,1.07.13,2.24.38,3.49.26,1.25.62,2.65,1.09,4.2l10,34.86c.35,1.2,2.02,1.25,2.43.07l12.15-34.79c.1-.28.27-.53.49-.71l6.97-1.85Z"/>
  <path class="cls-1" d="m163.16,157.32c0,2.12.07,3.67.21,4.65.14.98.38,1.76.71,2.33.33.57.82,1.04,1.47,1.42.65.38,1.7.76,3.16,1.14v2.33h-20.03v-2.33c1.96-.51,3.27-1.07,3.94-1.68.66-.62,1.1-1.49,1.31-2.63.21-1.14.31-2.88.31-5.22v-41.05c0-2.18-.08-3.77-.24-4.77-.16-1-.42-1.77-.78-2.33-.36-.55-.85-1-1.45-1.33-.6-.33-1.63-.7-3.08-1.12v-2.33h20.03v2.33c-1.39.35-2.4.7-3.01,1.04-.62.35-1.11.78-1.47,1.31-.36.52-.63,1.31-.81,2.35-.17,1.04-.26,2.66-.26,4.84v41.05Z"/>
  <path class="cls-1" d="m177.59,104.4h51.35v16.52h-4.65c-.7-2.72-1.38-4.87-2.06-6.45-.68-1.58-1.4-2.78-2.16-3.61-.76-.82-1.57-1.41-2.44-1.76-.87-.35-2.18-.52-3.92-.52h-6.03v48.6c0,1.87.1,3.35.31,4.46.21,1.11.52,1.99.95,2.63.43.65,1,1.16,1.73,1.52.73.36,1.87.72,3.42,1.07v2.33h-21.69v-2.33c.95-.22,1.79-.46,2.52-.71.73-.25,1.32-.56,1.78-.93.46-.36.84-.83,1.14-1.4.3-.57.54-1.34.71-2.33.17-.98.26-2.42.26-4.32v-48.6h-5.98c-1.49,0-2.71.14-3.68.43-.97.28-1.86.88-2.68,1.78-.82.9-1.57,2.18-2.25,3.84-.68,1.66-1.32,3.76-1.92,6.29h-4.7v-16.52Z"/>
  <path class="cls-1" d="m262.16,169.18v-2.33c1.58-.32,2.76-.66,3.54-1.04.77-.38,1.35-.91,1.73-1.59.38-.68.57-1.59.57-2.73,0-1.08-.13-2.24-.38-3.49-.25-1.25-.62-2.65-1.09-4.2l-1.76-6.12h-22.12l-1.61,4.65c-.82,2.34-1.36,4.11-1.61,5.32-.25,1.2-.38,2.29-.38,3.27,0,1.9.48,3.29,1.45,4.18.96.89,2.44,1.47,4.44,1.76v2.33h-20.27v-2.33c1.77-.28,3.31-1.31,4.63-3.08,1.31-1.77,2.59-4.3,3.82-7.59l19.79-52.54h7.5l16.14,52.92c.76,2.47,1.43,4.35,2.02,5.65.59,1.3,1.29,2.31,2.11,3.04.82.73,1.95,1.27,3.37,1.61v2.33h-21.88Zm-18.22-25.63h19.84l-9.02-30.61-10.82,30.61Z"/>
  <path class="cls-1" d="m305.16,141.04v16.14c0,2.28.09,3.93.26,4.96.17,1.03.43,1.8.78,2.33.35.52.82.95,1.42,1.28.6.33,1.63.7,3.09,1.12v2.33h-20.03v-2.33c1.96-.51,3.27-1.07,3.94-1.68.66-.62,1.1-1.49,1.31-2.63s.31-2.88.31-5.22v-41.05c0-2.18-.08-3.77-.24-4.77-.16-1-.42-1.77-.78-2.33-.36-.55-.85-1-1.45-1.33-.6-.33-1.63-.7-3.08-1.12v-2.33h23.49c7.4,0,12.94,1.35,16.61,4.03,3.67,2.69,5.51,6.87,5.51,12.53,0,4.34-1.19,8.02-3.58,11.06-2.39,3.04-5.97,5.41-10.75,7.12v.38c1.93.79,3.58,1.92,4.96,3.39,1.38,1.47,2.9,3.76,4.58,6.86l4.27,7.78c1.23,2.28,2.29,4.02,3.18,5.22.89,1.2,1.79,2.12,2.71,2.75.92.63,2.14,1.08,3.65,1.33v2.33h-13.15c-1.2-1.68-2.34-3.48-3.42-5.41-1.08-1.93-2.14-3.89-3.18-5.89l-4.18-7.93c-1.27-2.4-2.3-4.18-3.11-5.32-.81-1.14-1.55-1.94-2.23-2.4-.68-.46-1.41-.78-2.18-.95-.78-.17-1.94-.26-3.49-.26h-5.22Zm0-32.27v28.19h5.36c2.75,0,4.98-.2,6.69-.59,1.71-.4,3.29-1.15,4.75-2.25,1.46-1.11,2.62-2.65,3.49-4.63.87-1.98,1.31-4.41,1.31-7.29s-.51-5.51-1.54-7.5c-1.03-1.99-2.59-3.51-4.67-4.56-2.09-1.04-4.9-1.57-8.45-1.57-2.85,0-5.16.06-6.93.19Z"/>
  <path class="cls-1" d="m365.53,157.32c0,2.12.07,3.67.21,4.65.14.98.38,1.76.71,2.33.33.57.82,1.04,1.47,1.42.65.38,1.7.76,3.16,1.14v2.33h-20.03v-2.33c1.96-.51,3.27-1.07,3.94-1.68.66-.62,1.1-1.49,1.31-2.63.21-1.14.31-2.88.31-5.22v-41.05c0-2.18-.08-3.77-.24-4.77-.16-1-.42-1.77-.78-2.33-.36-.55-.85-1-1.45-1.33-.6-.33-1.63-.7-3.08-1.12v-2.33h20.03v2.33c-1.39.35-2.4.7-3.01,1.04-.62.35-1.11.78-1.47,1.31-.36.52-.63,1.31-.81,2.35-.17,1.04-.26,2.66-.26,4.84v41.05Z"/>
  <path class="cls-1" d="m414.6,169.18v-2.33c1.58-.32,2.76-.66,3.54-1.04.77-.38,1.35-.91,1.73-1.59.38-.68.57-1.59.57-2.73,0-1.08-.13-2.24-.38-3.49-.25-1.25-.62-2.65-1.09-4.2l-1.76-6.12h-22.12l-1.61,4.65c-.82,2.34-1.36,4.11-1.61,5.32-.25,1.2-.38,2.29-.38,3.27,0,1.9.48,3.29,1.45,4.18.97.89,2.44,1.47,4.44,1.76v2.33h-20.27v-2.33c1.77-.28,3.31-1.31,4.63-3.08,1.31-1.77,2.59-4.3,3.82-7.59l19.79-52.54h7.5l16.14,52.92c.76,2.47,1.43,4.35,2.02,5.65.59,1.3,1.29,2.31,2.11,3.04.82.73,1.95,1.27,3.37,1.61v2.33h-21.88Zm-18.22-25.63h19.84l-9.02-30.61-10.82,30.61Z"/>
  <path class="cls-2" d="m127.24,118.13c1.03-1.58,2.07-3.12,3.49-4.22.84-.65,2.02-.94,3.09-1.16,1.04-.22,2.13-.14,3.2-.2.05,0,.1-.03.15-.06-.61-.51-2.45-.4-5.56.33.75-.73,1.44-1.4,2.12-2.07.55-.54,1.14-1.05,1.61-1.65.86-1.13,2.06-1.52,3.36-1.74.35-.06.71-.12,1.05-.26-.93-.25-1.8.07-2.65.22.74-1.14,1.54-2.27,2.22-3.48.67-1.19,1.19-2.46,1.31-3.88-.92,3.03-2.81,5.38-5.01,7.68.15-1.03.28-1.94.05-2.85-.05,0-.11,0-.16,0-.01.26-.04.52-.03.79.05,1.5-.35,2.78-1.57,3.76-.97.77-1.84,1.65-2.85,2.56.28-1.45.48-2.78.05-4.1h-.14c.02.36.11.72.05,1.07-.18,1.16-.41,2.32-.64,3.47-.03.16-.13.32-.24.43-1.2,1.3-2.41,2.59-3.61,3.87.23-1.43.33-2.9,0-4.38-.05,0-.11,0-.16,0,0,.2-.02.39,0,.59.12,1.71-.18,3.36-.69,4.97-.19.61-.58,1.15-.87,1.72-.56,1.09-1.11,2.19-1.71,3.38-.18-1.04-.41-2.02-.52-3.02-.32-2.77-.07-5.46,1.24-7.98,1.07-2.06,2.62-3.68,4.47-4.99,2.23-1.59,4.55-3.06,6.77-4.65,1.56-1.11,2.91-2.45,3.85-4.17.62-1.13.97-2.33.99-3.71.5.76,1.03,1.5,1.48,2.29,1.36,2.38,2.16,4.96,2.33,7.7.31,4.85-1.55,8.62-5.53,11.3-.12.08-.25.16-.36.24-.02.02-.02.06-.07.22,1.28-.34,2.31-1.02,3.45-1.77-1.07,1.44-2.25,2.55-3.57,3.53-2.22,1.64-4.64,2.91-7.16,3.99-3.59,1.55-5.77,4.29-6.65,8.09-.38,1.65-.58,3.34-.81,4.75-.01-.29-.05-.88-.07-1.46-.02-.59-.03-1.18-.02-1.77.1-3.99,1.09-7.74,3.01-11.22.27-.49.7-.95,1.17-1.26,2.04-1.33,4.27-2.13,6.72-2.24.07,0,.13-.03.23-.06-.46-.29-2.03-.22-3.46.21-1.11.33-2.19.77-3.36,1.18Z"/>
</svg>